<svg width="105" height="95" viewBox="0 0 105 95" fill="none" xmlns="http://www.w3.org/2000/svg">
  <path d="M72.4012 94.212H39.3858C39.3858 94.212 12.5471 94.8542 4.6701 79.7924C-4.88216 61.5272 14.8446 53.649 23.6553 51.4335C43.7253 46.3866 51.8617 33.6491 54.8451 31.0058C69.1695 18.3148 87.6623 25.1612 94.7139 31.0059C107.815 41.8645 108.315 64.4944 94.714 79.7924C81.8939 94.212 72.4012 94.212 72.4012 94.212Z" fill="#E8EEF7"/>
  <path fill-rule="evenodd" clip-rule="evenodd" d="M83.7888 7.61856C84.4793 7.61856 85.0391 7.0588 85.0391 6.3683C85.0391 5.6778 84.4793 5.11804 83.7888 5.11804C83.0983 5.11804 82.5386 5.6778 82.5386 6.3683C82.5386 7.0588 83.0983 7.61856 83.7888 7.61856Z" fill="white" stroke="#FF9800" stroke-width="2.18331"/>
  <path fill-rule="evenodd" clip-rule="evenodd" d="M32.1121 4.28451C32.8026 4.28451 33.3623 3.72475 33.3623 3.03425C33.3623 2.34376 32.8026 1.784 32.1121 1.784C31.4216 1.784 30.8618 2.34376 30.8618 3.03425C30.8618 3.72475 31.4216 4.28451 32.1121 4.28451Z" fill="white" stroke="#FF9800" stroke-width="2.18331"/>
  <path fill-rule="evenodd" clip-rule="evenodd" d="M96.2915 46.3765C96.7518 46.3765 97.125 46.0033 97.125 45.543C97.125 45.0826 96.7518 44.7095 96.2915 44.7095C95.8312 44.7095 95.458 45.0826 95.458 45.543C95.458 46.0033 95.8312 46.3765 96.2915 46.3765Z" stroke="#88BBE5" stroke-width="2.18331"/>
  <path fill-rule="evenodd" clip-rule="evenodd" d="M16.2756 46.3765C16.736 46.3765 17.1091 46.0033 17.1091 45.543C17.1091 45.0826 16.736 44.7095 16.2756 44.7095C15.8153 44.7095 15.4421 45.0826 15.4421 45.543C15.4421 46.0033 15.8153 46.3765 16.2756 46.3765Z" stroke="#88BBE5" stroke-width="2.18331"/>
  <path fill-rule="evenodd" clip-rule="evenodd" d="M16.2754 66.3806C16.5056 66.3806 16.6921 66.194 16.6921 65.9639C16.6921 65.7337 16.5056 65.5471 16.2754 65.5471C16.0452 65.5471 15.8586 65.7337 15.8586 65.9639C15.8586 66.194 16.0452 66.3806 16.2754 66.3806Z" fill="white" stroke="#FF9800" stroke-width="2.18331"/>
  <path fill-rule="evenodd" clip-rule="evenodd" d="M1.68873 38.875C1.91889 38.875 2.10548 38.6884 2.10548 38.4583C2.10548 38.2281 1.91889 38.0415 1.68873 38.0415C1.45856 38.0415 1.27197 38.2281 1.27197 38.4583C1.27197 38.6884 1.45856 38.875 1.68873 38.875Z" fill="white" stroke="#FF9800" stroke-width="2.18331"/>
  <path fill-rule="evenodd" clip-rule="evenodd" d="M67.1189 10.1191C67.3491 10.1191 67.5357 9.9325 67.5357 9.70233C67.5357 9.47217 67.3491 9.28558 67.1189 9.28558C66.8887 9.28558 66.7021 9.47217 66.7021 9.70233C66.7021 9.9325 66.8887 10.1191 67.1189 10.1191Z" fill="white" stroke="#FF9800" stroke-width="2.18331"/>
  <path fill-rule="evenodd" clip-rule="evenodd" d="M42.9478 87.6352C43.1779 87.6352 43.3645 87.4487 43.3645 87.2185C43.3645 86.9883 43.1779 86.8018 42.9478 86.8018C42.7176 86.8018 42.531 86.9883 42.531 87.2185C42.531 87.4487 42.7176 87.6352 42.9478 87.6352Z" fill="white" stroke="#FF9800" stroke-width="2.18331"/>
  <path fill-rule="evenodd" clip-rule="evenodd" d="M77.5376 89.7189C77.7678 89.7189 77.9543 89.5323 77.9543 89.3021C77.9543 89.072 77.7678 88.8854 77.5376 88.8854C77.3074 88.8854 77.1208 89.072 77.1208 89.3021C77.1208 89.5323 77.3074 89.7189 77.5376 89.7189Z" stroke="#88BBE5" stroke-width="2.18331"/>
  <path fill-rule="evenodd" clip-rule="evenodd" d="M98.375 20.1212C98.6052 20.1212 98.7917 19.9346 98.7917 19.7044C98.7917 19.4742 98.6052 19.2877 98.375 19.2877C98.1448 19.2877 97.9583 19.4742 97.9583 19.7044C97.9583 19.9346 98.1448 20.1212 98.375 20.1212Z" stroke="#88BBE5" stroke-width="2.18331"/>
  <path fill-rule="evenodd" clip-rule="evenodd" d="M10.0242 23.4552C10.4845 23.4552 10.8577 23.082 10.8577 22.6217C10.8577 22.1614 10.4845 21.7882 10.0242 21.7882C9.56385 21.7882 9.19067 22.1614 9.19067 22.6217C9.19067 23.082 9.56385 23.4552 10.0242 23.4552Z" stroke="#88BBE5" stroke-width="2.18331"/>
  <path d="M53.5653 16.2C47.7511 16.2 42.0674 17.9241 37.233 21.1544C32.3987 24.3846 28.6307 28.9758 26.4057 34.3475C24.1807 39.7191 23.5985 45.63 24.7328 51.3325C25.8671 57.035 28.667 62.2731 32.7783 66.3844C36.8896 70.4957 42.1277 73.2955 47.8302 74.4298C53.5327 75.5641 59.4435 74.982 64.8152 72.7569C70.1868 70.5319 74.7781 66.764 78.0083 61.9296C81.2385 57.0953 82.9626 51.4116 82.9626 45.5973C82.9626 37.8007 79.8654 30.3234 74.3524 24.8103C68.8393 19.2972 61.362 16.2 53.5653 16.2ZM72.7654 35.7309L48.6229 59.8551L34.3652 45.5973C33.8779 45.1101 33.6041 44.4491 33.6041 43.76C33.6041 43.0709 33.8779 42.41 34.3652 41.9227C34.8525 41.4354 35.5134 41.1616 36.2025 41.1616C36.8916 41.1616 37.5526 41.4354 38.0398 41.9227L48.6596 52.5425L69.1275 32.0929C69.3688 31.8517 69.6553 31.6603 69.9705 31.5297C70.2858 31.3991 70.6236 31.3319 70.9649 31.3319C71.3061 31.3319 71.644 31.3991 71.9592 31.5297C72.2745 31.6603 72.5609 31.8517 72.8022 32.0929C73.0435 32.3342 73.2349 32.6207 73.3655 32.9359C73.496 33.2512 73.5632 33.5891 73.5632 33.9303C73.5632 34.2715 73.496 34.6094 73.3655 34.9246C73.2349 35.2399 73.0435 35.5263 72.8022 35.7676L72.7654 35.7309Z" fill="#00529C"/>
</svg>
