<svg width="120" height="107" viewBox="0 0 120 107" fill="none" xmlns="http://www.w3.org/2000/svg">
<path d="M82.2041 106.544H44.4191C44.4191 106.544 13.7032 107.279 4.68831 90.0417C-6.24391 69.1379 16.3326 60.1215 26.4161 57.5859C49.3855 51.8099 58.6974 37.2323 62.1118 34.2072C78.5054 19.6828 99.6698 27.5183 107.74 34.2073C122.734 46.6346 123.306 72.5337 107.74 90.0417C93.0681 106.544 82.2041 106.544 82.2041 106.544Z" fill="#E8EEF7"/>
<path fill-rule="evenodd" clip-rule="evenodd" d="M95.2368 7.44134C96.027 7.44134 96.6677 6.80071 96.6677 6.01046C96.6677 5.22021 96.027 4.57959 95.2368 4.57959C94.4465 4.57959 93.8059 5.22021 93.8059 6.01046C93.8059 6.80071 94.4465 7.44134 95.2368 7.44134Z" fill="white" stroke="#FF9800" stroke-width="1.39337"/>
<path fill-rule="evenodd" clip-rule="evenodd" d="M36.0947 3.62572C36.8849 3.62572 37.5256 2.9851 37.5256 2.19485C37.5256 1.4046 36.8849 0.763977 36.0947 0.763977C35.3044 0.763977 34.6638 1.4046 34.6638 2.19485C34.6638 2.9851 35.3044 3.62572 36.0947 3.62572Z" fill="white" stroke="#FF9800" stroke-width="1.39337"/>
<path fill-rule="evenodd" clip-rule="evenodd" d="M109.546 51.7984C110.073 51.7984 110.5 51.3713 110.5 50.8445C110.5 50.3176 110.073 49.8906 109.546 49.8906C109.019 49.8906 108.592 50.3176 108.592 50.8445C108.592 51.3713 109.019 51.7984 109.546 51.7984Z" stroke="#88BBE5" stroke-width="1.39337"/>
<path fill-rule="evenodd" clip-rule="evenodd" d="M17.9705 51.7984C18.4973 51.7984 18.9244 51.3713 18.9244 50.8445C18.9244 50.3176 18.4973 49.8906 17.9705 49.8906C17.4437 49.8906 17.0166 50.3176 17.0166 50.8445C17.0166 51.3713 17.4437 51.7984 17.9705 51.7984Z" stroke="#88BBE5" stroke-width="1.39337"/>
<path fill-rule="evenodd" clip-rule="evenodd" d="M17.9701 74.6924C18.2335 74.6924 18.4471 74.4788 18.4471 74.2154C18.4471 73.952 18.2335 73.7385 17.9701 73.7385C17.7067 73.7385 17.4932 73.952 17.4932 74.2154C17.4932 74.4788 17.7067 74.6924 17.9701 74.6924Z" fill="white" stroke="#FF9800" stroke-width="1.39337"/>
<path fill-rule="evenodd" clip-rule="evenodd" d="M1.27627 43.2133C1.53969 43.2133 1.75323 42.9998 1.75323 42.7364C1.75323 42.4729 1.53969 42.2594 1.27627 42.2594C1.01286 42.2594 0.799316 42.4729 0.799316 42.7364C0.799316 42.9998 1.01286 43.2133 1.27627 43.2133Z" fill="white" stroke="#FF9800" stroke-width="1.39337"/>
<path fill-rule="evenodd" clip-rule="evenodd" d="M76.1588 10.3031C76.4223 10.3031 76.6358 10.0896 76.6358 9.82614C76.6358 9.56272 76.4223 9.34918 76.1588 9.34918C75.8954 9.34918 75.6819 9.56272 75.6819 9.82614C75.6819 10.0896 75.8954 10.3031 76.1588 10.3031Z" fill="white" stroke="#FF9800" stroke-width="1.39337"/>
<path fill-rule="evenodd" clip-rule="evenodd" d="M48.4955 99.0177C48.7589 99.0177 48.9725 98.8041 48.9725 98.5407C48.9725 98.2773 48.7589 98.0638 48.4955 98.0638C48.2321 98.0638 48.0186 98.2773 48.0186 98.5407C48.0186 98.8041 48.2321 99.0177 48.4955 99.0177Z" fill="white" stroke="#FF9800" stroke-width="1.39337"/>
<path fill-rule="evenodd" clip-rule="evenodd" d="M88.0827 101.402C88.3461 101.402 88.5596 101.189 88.5596 100.925C88.5596 100.662 88.3461 100.448 88.0827 100.448C87.8193 100.448 87.6057 100.662 87.6057 100.925C87.6057 101.189 87.8193 101.402 88.0827 101.402Z" stroke="#88BBE5" stroke-width="1.39337"/>
<path fill-rule="evenodd" clip-rule="evenodd" d="M111.93 21.7502C112.193 21.7502 112.407 21.5366 112.407 21.2732C112.407 21.0098 112.193 20.7963 111.93 20.7963C111.667 20.7963 111.453 21.0098 111.453 21.2732C111.453 21.5366 111.667 21.7502 111.93 21.7502Z" stroke="#88BBE5" stroke-width="1.39337"/>
<path fill-rule="evenodd" clip-rule="evenodd" d="M10.8157 25.5659C11.3426 25.5659 11.7696 25.1388 11.7696 24.6119C11.7696 24.0851 11.3426 23.658 10.8157 23.658C10.2889 23.658 9.86182 24.0851 9.86182 24.6119C9.86182 25.1388 10.2889 25.5659 10.8157 25.5659Z" stroke="#88BBE5" stroke-width="1.39337"/>
<path d="M70.0655 28.5117L92.6095 66.0602C95.8493 71.4531 94.258 78.5484 89.0534 81.9059C87.3067 83.037 85.2705 83.6397 83.1895 83.6419H38.0983C31.9719 83.6419 27.0029 78.4945 27.0029 72.1395C27.0029 69.9897 27.5849 67.887 28.6783 66.0602L51.2256 28.5117C54.4621 23.1187 61.305 21.4669 66.5095 24.8244C67.9494 25.753 69.1673 27.0146 70.0655 28.5117ZM60.6456 70.1848C61.5378 70.1848 62.3936 69.8304 63.0245 69.1994C63.6554 68.5685 64.0098 67.7128 64.0098 66.8205C64.0098 65.9283 63.6554 65.0726 63.0245 64.4417C62.3936 63.8107 61.5378 63.4563 60.6456 63.4563C59.7533 63.4563 58.8976 63.8107 58.2667 64.4417C57.6358 65.0726 57.2813 65.9283 57.2813 66.8205C57.2813 67.7128 57.6358 68.5685 58.2667 69.1994C58.8976 69.8304 59.7533 70.1848 60.6456 70.1848ZM60.6456 39.9064C59.7533 39.9064 58.8976 40.2609 58.2667 40.8918C57.6358 41.5227 57.2813 42.3784 57.2813 43.2707V56.7278C57.2813 57.62 57.6358 58.4757 58.2667 59.1066C58.8976 59.7376 59.7533 60.092 60.6456 60.092C61.5378 60.092 62.3936 59.7376 63.0245 59.1066C63.6554 58.4757 64.0098 57.62 64.0098 56.7278V43.2707C64.0098 42.3784 63.6554 41.5227 63.0245 40.8918C62.3936 40.2609 61.5378 39.9064 60.6456 39.9064Z" fill="#E84040"/>
</svg>
