<svg width="160" height="142" viewBox="0 0 160 142" fill="none" xmlns="http://www.w3.org/2000/svg">
<path d="M109.641 135.932H59.442C59.442 135.932 18.6342 136.908 6.65735 114.007C-7.86673 86.235 22.1275 74.2563 35.524 70.8876C66.0402 63.2139 78.4115 43.8467 82.9478 39.8276C104.728 20.5311 132.846 30.941 143.568 39.8278C163.487 56.3382 164.248 90.7466 143.568 114.007C124.075 135.932 109.641 135.932 109.641 135.932Z" fill="#EAF3FA"/>
<path fill-rule="evenodd" clip-rule="evenodd" d="M134.31 10.2867C135.423 10.2867 136.326 9.39555 136.326 8.2962C136.326 7.19686 135.423 6.30566 134.31 6.30566C133.196 6.30566 132.293 7.19686 132.293 8.2962C132.293 9.39555 133.196 10.2867 134.31 10.2867Z" fill="white" stroke="#E37519" stroke-width="1.43571"/>
<path fill-rule="evenodd" clip-rule="evenodd" d="M50.9523 4.97888C52.0661 4.97888 52.969 4.08768 52.969 2.98834C52.969 1.889 52.0661 0.997803 50.9523 0.997803C49.8385 0.997803 48.9355 1.889 48.9355 2.98834C48.9355 4.08768 49.8385 4.97888 50.9523 4.97888Z" fill="white" stroke="#E37519" stroke-width="1.43571"/>
<path fill-rule="evenodd" clip-rule="evenodd" d="M154.476 71.9956C155.219 71.9956 155.821 71.4015 155.821 70.6686C155.821 69.9357 155.219 69.3416 154.476 69.3416C153.734 69.3416 153.132 69.9357 153.132 70.6686C153.132 71.4015 153.734 71.9956 154.476 71.9956Z" stroke="#C0DBF1" stroke-width="1.43571"/>
<path fill-rule="evenodd" clip-rule="evenodd" d="M25.4079 71.9956C26.1505 71.9956 26.7524 71.4015 26.7524 70.6686C26.7524 69.9357 26.1505 69.3416 25.4079 69.3416C24.6654 69.3416 24.0635 69.9357 24.0635 70.6686C24.0635 71.4015 24.6654 71.9956 25.4079 71.9956Z" stroke="#C0DBF1" stroke-width="1.43571"/>
<path fill-rule="evenodd" clip-rule="evenodd" d="M25.4076 103.844C25.7789 103.844 26.0798 103.547 26.0798 103.18C26.0798 102.814 25.7789 102.517 25.4076 102.517C25.0363 102.517 24.7354 102.814 24.7354 103.18C24.7354 103.547 25.0363 103.844 25.4076 103.844Z" fill="white" stroke="#E37519" stroke-width="1.43571"/>
<path fill-rule="evenodd" clip-rule="evenodd" d="M1.87927 60.0521C2.25054 60.0521 2.55151 59.7551 2.55151 59.3886C2.55151 59.0222 2.25054 58.7251 1.87927 58.7251C1.508 58.7251 1.20703 59.0222 1.20703 59.3886C1.20703 59.7551 1.508 60.0521 1.87927 60.0521Z" fill="white" stroke="#E37519" stroke-width="1.43571"/>
<path fill-rule="evenodd" clip-rule="evenodd" d="M107.421 14.2674C107.793 14.2674 108.094 13.9704 108.094 13.6039C108.094 13.2375 107.793 12.9404 107.421 12.9404C107.05 12.9404 106.749 13.2375 106.749 13.6039C106.749 13.9704 107.05 14.2674 107.421 14.2674Z" fill="white" stroke="#E37519" stroke-width="1.43571"/>
<path fill-rule="evenodd" clip-rule="evenodd" d="M68.431 137.683C68.8023 137.683 69.1033 137.386 69.1033 137.02C69.1033 136.653 68.8023 136.356 68.431 136.356C68.0598 136.356 67.7588 136.653 67.7588 137.02C67.7588 137.386 68.0598 137.683 68.431 137.683Z" fill="white" stroke="#E37519" stroke-width="1.43571"/>
<path fill-rule="evenodd" clip-rule="evenodd" d="M124.228 140.998C124.599 140.998 124.9 140.701 124.9 140.334C124.9 139.968 124.599 139.671 124.228 139.671C123.857 139.671 123.556 139.968 123.556 140.334C123.556 140.701 123.857 140.998 124.228 140.998Z" stroke="#C0DBF1" stroke-width="1.43571"/>
<path fill-rule="evenodd" clip-rule="evenodd" d="M157.838 30.1918C158.21 30.1918 158.51 29.8947 158.51 29.5283C158.51 29.1618 158.21 28.8647 157.838 28.8647C157.467 28.8647 157.166 29.1618 157.166 29.5283C157.166 29.8947 157.467 30.1918 157.838 30.1918Z" stroke="#C0DBF1" stroke-width="1.43571"/>
<path fill-rule="evenodd" clip-rule="evenodd" d="M15.324 35.5007C16.0665 35.5007 16.6684 34.9066 16.6684 34.1737C16.6684 33.4408 16.0665 32.8467 15.324 32.8467C14.5814 32.8467 13.9795 33.4408 13.9795 34.1737C13.9795 34.9066 14.5814 35.5007 15.324 35.5007Z" stroke="#C0DBF1" stroke-width="1.43571"/>
<g clip-path="url(#clip0_3090_151328)">
<path d="M80.0002 31.729C58.276 31.729 40.6035 49.4015 40.6035 71.1257C40.6035 92.8499 58.276 110.522 80.0002 110.522C101.724 110.522 119.397 92.8499 119.397 71.1257C119.397 49.4015 101.724 31.729 80.0002 31.729ZM94.5083 80.9911C95.7917 82.2751 95.7917 84.3497 94.5083 85.6337C93.868 86.274 93.0276 86.5956 92.1866 86.5956C91.3462 86.5956 90.5058 86.274 89.8656 85.6337L80.0002 75.7677L70.1348 85.6337C69.4946 86.274 68.6542 86.5956 67.8138 86.5956C66.9728 86.5956 66.1324 86.274 65.4922 85.6337C64.2087 84.3497 64.2087 82.2751 65.4922 80.9911L75.3582 71.1257L65.4922 61.2603C64.2087 59.9762 64.2087 57.9017 65.4922 56.6176C66.7762 55.3342 68.8508 55.3342 70.1348 56.6176L80.0002 66.4836L89.8656 56.6176C91.1497 55.3342 93.2242 55.3342 94.5083 56.6176C95.7917 57.9017 95.7917 59.9762 94.5083 61.2603L84.6423 71.1257L94.5083 80.9911Z" fill="#E84040"/>
</g>
<defs>
<clipPath id="clip0_3090_151328">
<rect width="78.7934" height="78.7934" fill="white" transform="translate(40.6035 31.729)"/>
</clipPath>
</defs>
</svg>
